# xmcd
#
# Track frame offsets:
#	150
#	14442
#	28702
#	42097
#	55512
#	69340
#	82945
#	97650
#	109437
#	122102
#	133467
#	145520
#	153937
#	164412
#	171807
#	186100
#	191942
#	205020
#	211845
#	223282
#	232157
#
# Disc length: 3367 seconds
#
# Revision: 1
# Processed by: cddbd v1.4b42PL1 Copyright (c) Steve Scherf et al.
# Submitted via: audiograbber 1.80.04
#
DISCID=2a0d2515
DTITLE=Huddy Leadbelly and Blind Willie McTell - Masters of the Country Blues
DYEAR=1900
DGENRE=
TTITLE0=Huddy Leadbelly - Death Letter Blues, Part 1
TTITLE1=Huddy Leadbelly - Death Letter Blues, Part 2
TTITLE2=Huddy Leadbelly - Kansas City Papa
TTITLE3=Huddy Leadbelly - Daddy I'm Coming Back to You
TTITLE4=Huddy Leadbelly - Shorty George
TTITLE5=Huddy Leadbelly - Yellow Jacket
TTITLE6=Huddy Leadbelly - T.B Woman Blues, Part 1
TTITLE7=Huddy Leadbelly - T.B Woman Blues, Part 2
TTITLE8=Blind Willie McTell - Chainey
TTITLE9=Blind Willie McTell - Murderer's Home Blues
TTITLE10=Blind Willie McTell - Kill-It-Kid Rag
TTITLE11=Blind Willie McTell - I Got To Cross De Reiver O' Jordan
TTITLE12=Blind Willie McTell - Old Time Religion
TTITLE13=Blind Willie McTell - Will Fox
TTITLE14=Blind Willie McTell - Dying Crapshooters Blues
TTITLE15=Blind Willie McTell - Amazing Grace
TTITLE16=Blind Willie McTell - Just As Well Get Ready: Climbing High Mountans, 
TTITLE16=Tryin' To Get Home
TTITLE17=Blind Willie McTell - King Edward Blues, AKA - Baby It Must Be Love
TTITLE18=Blind Willie McTell - Della
TTITLE19=Blind Willie McTell - Boll Weevil
TTITLE20=Blind Willie McTell - I Got To Cross The River Jordan
EXTD=Library of Congress Session Novemver 5, 1940.\n
EXTT0=
EXTT1=
EXTT2=
EXTT3=
EXTT4=
EXTT5=
EXTT6=
EXTT7=
EXTT8=
EXTT9=
EXTT10=
EXTT11=
EXTT12=
EXTT13=
EXTT14=
EXTT15=
EXTT16=
EXTT17=
EXTT18=
EXTT19=
EXTT20=
PLAYORDER=
